<?xml version="1.0" encoding="UTF-8" standalone="no"?>
<!-- Created with Inkscape (http://www.inkscape.org/) -->

<svg
  version="1.1"
  id="svg2"
  width="102"
  height="102"
  viewBox="0 0 102 102"
  xmlns="http://www.w3.org/2000/svg"
  xmlns:svg="http://www.w3.org/2000/svg">

  <g
    id="g8"
    transform="translate(-3,-17.708968)">
    <path
      style="display:inline;fill:hsl(20, 72%, 65%);fill-opacity:1"
      d="m 45.819169,118.80507 c -1.40104,-0.81603 -1.75,-2.40521 -1.75,-7.96959 v -6.95031 h -13 c -7.15,0 -13,-0.2908 -13,-0.64623 0,-1.84776 25.423716,-81.190275 26.628938,-83.103775 2.133967,-3.388042 15.604389,-3.388042 17.749574,0 0.783541,1.2375 7.160579,20.25 14.171196,42.25 7.010617,22 12.977843,40.627095 13.260502,41.393535 0.431615,1.17035 -1.674195,1.27758 -13.148142,0.66952 l -13.662068,-0.72401 v 7.10523 c 0,6.70687 -0.143816,7.15991 -2.5651,8.08048 -3.332738,1.26711 -12.441052,1.20207 -14.6849,-0.10485 z"
      id="path898" />
  </g>
</svg>
